<?xml version="1.0" standalone="no"?>
<!DOCTYPE svg PUBLIC "-//W3C//DTD SVG 20010904//EN" "http://www.w3.org/TR/2001/REC-SVG-20010904/DTD/svg10.dtd">
<!-- Created using Krita: https://krita.org -->
<svg xmlns="http://www.w3.org/2000/svg" 
    xmlns:xlink="http://www.w3.org/1999/xlink"
    xmlns:krita="http://krita.org/namespaces/svg/krita"
    xmlns:sodipodi="http://sodipodi.sourceforge.net/DTD/sodipodi-0.dtd"
    width="146.88pt"
    height="86.4pt"
    viewBox="0 0 146.88 86.4">
<defs/>
<path id="shape0" transform="translate(17.8799999999986, 29.8199999999976)" fill="none" stroke="#000000" stroke-width="0.731999999999941" stroke-linecap="square" stroke-linejoin="bevel" d="M0 0.45L0.63 0L1.83 1.08L1.59 1.59L0.9 1.59L0 1.2Z"/><path id="shape1" transform="translate(17.7299999999986, 30.2699999999976)" fill="#000000" fill-rule="evenodd" stroke="#000000" stroke-width="0.731999999999941" stroke-linecap="square" stroke-linejoin="bevel" d="M0 0.18L1.41 1.14L1.89 0.81L0.96 0Z"/><path id="shape2" transform="translate(29.8199999999976, 12.869999999999)" fill="#000000" fill-rule="evenodd" stroke="#000000" stroke-width="0.731999999999941" stroke-linecap="square" stroke-linejoin="bevel" d="M1.08 0L2.52 0.18L4.23 2.34L4.23 3.6L3.45 4.08L2.07 4.08L1.77 2.91L0 1.29L0.36 0.27Z"/><path id="shape3" transform="translate(60.6899999999951, 12.809999999999)" fill="#000000" fill-rule="evenodd" stroke="#000000" stroke-width="0.731999999999941" stroke-linecap="square" stroke-linejoin="bevel" d="M4.14 1.86L4.14 0.96L1.77 0L0.51 0.12L0 0.99L0.48 1.83L1.92 2.1L2.7 1.83L3.66 1.77Z"/><path id="shape4" transform="translate(68.0399999999945, 27.0899999999978)" fill="#000000" fill-rule="evenodd" stroke="#000000" stroke-width="0.731999999999941" stroke-linecap="square" stroke-linejoin="bevel" d="M0.93 0L0 0.09L1.35 2.55L2.04 2.19Z"/><path id="shape5" transform="translate(71.6099999999943, 17.8799999999986)" fill="#000000" fill-rule="evenodd" stroke="#000000" stroke-width="0.731999999999941" stroke-linecap="square" stroke-linejoin="bevel" d="M0 0L1.29 0.09L2.88 0.54L1.83 1.08L0.54 1.26L0.06 0.69Z"/><path id="shape6" transform="translate(74.609999999994, 14.8499999999988)" fill="#000000" fill-rule="evenodd" stroke="#000000" stroke-width="0.731999999999941" stroke-linecap="square" stroke-linejoin="bevel" d="M5.7 0.09L3.9 0L3.24 0.39L2.25 0.15L0.9 0.15L0 1.14L0.36 1.89L1.35 2.55L2.37 3.39L3.18 3.78L3.93 3.3L4.02 2.7L3.27 2.22L3.27 1.56L3.93 1.2L4.62 1.2L5.28 1.2L5.58 0.75Z"/><path id="shape7" transform="translate(82.3199999999934, 15.4799999999988)" fill="#000000" fill-rule="evenodd" stroke="#000000" stroke-width="0.731999999999941" stroke-linecap="square" stroke-linejoin="bevel" d="M0 0L1.11 0L1.53 0.54L0.99 1.83L0.81 0.66Z"/><path id="shape8" transform="translate(108.749999999991, 7.07999999999943)" fill="#000000" fill-rule="evenodd" stroke="#000000" stroke-width="0.731999999999941" stroke-linecap="square" stroke-linejoin="bevel" d="M0.96 0L0.15 0L0 0.6L0.63 1.35L1.11 1.08L1.32 0.69Z"/><path id="shape9" transform="translate(105.989999999992, 16.3499999999987)" fill="#000000" fill-rule="evenodd" stroke="#000000" stroke-width="0.731999999999941" stroke-linecap="square" stroke-linejoin="bevel" d="M0.39 0.15L0 0L0 0.75L0.75 1.47L1.08 1.26Z"/><path id="shape10" transform="translate(103.919999999992, 17.2799999999986)" fill="#000000" fill-rule="evenodd" stroke="#000000" stroke-width="0.731999999999941" stroke-linecap="square" stroke-linejoin="bevel" d="M0.24 0L0 0.42L0.54 1.08L1.35 1.14Z"/><path id="shape11" transform="translate(116.219999999991, 26.2499999999979)" fill="#000000" fill-rule="evenodd" stroke="#000000" stroke-width="0.731999999999941" stroke-linecap="square" stroke-linejoin="bevel" d="M0 0.09L0.09 0.72L0.69 0.3L0.51 0Z"/><path id="shape12" transform="translate(106.739999999991, 25.319999999998)" fill="#000000" fill-rule="evenodd" stroke="#000000" stroke-width="0.731999999999941" stroke-linecap="square" stroke-linejoin="bevel" d="M1.2 1.32L2.07 0.81L2.07 0.12L1.59 0L0.6 0.18L0 1.23L0.06 2.34L1.08 2.88L1.74 2.22L1.35 1.62L1.38 1.2Z"/><path id="shape13" transform="translate(103.229999999992, 28.4699999999977)" fill="#000000" fill-rule="evenodd" stroke="#000000" stroke-width="0.731999999999941" stroke-linecap="square" stroke-linejoin="bevel" d="M0.12 0L0 0.3L0.42 0.48L0.45 0.09Z"/><path id="shape14" transform="translate(98.1599999999921, 28.9799999999977)" fill="#000000" fill-rule="evenodd" stroke="#000000" stroke-width="0.731999999999941" stroke-linecap="square" stroke-linejoin="bevel" d="M3.45 2.25L1.56 0.21L0.45 0L0 0.6L0.33 1.56L1.56 2.28Z"/><path id="shape15" transform="translate(105.989999999992, 33.1199999999973)" fill="#000000" fill-rule="evenodd" stroke="#000000" stroke-width="0.731999999999941" stroke-linecap="square" stroke-linejoin="bevel" d="M3.87 0L0.33 0.12L0 0.84L1.71 2.16L3.03 1.56L4.8 1.26Z"/><path id="shape16" transform="translate(107.099999999991, 37.169999999997)" fill="#000000" fill-rule="evenodd" stroke="#000000" stroke-width="0.731999999999941" stroke-linecap="square" stroke-linejoin="bevel" d="M1.11 0.03L0 0L0.81 1.11L1.26 2.37L1.92 2.16L2.28 1.41Z"/><path id="shape17" transform="translate(115.679999999991, 39.5099999999968)" fill="#000000" fill-rule="evenodd" stroke="#000000" stroke-width="0.731999999999941" stroke-linecap="square" stroke-linejoin="bevel" d="M4.23 1.92L2.64 1.26L1.74 0.27L0.51 0L0 0.87L0.09 2.43L1.02 2.73L2.55 3.69L3.09 4.47L4.08 4.59Z"/><path id="shape18" transform="translate(118.499999999991, 45.4799999999964)" fill="#000000" fill-rule="evenodd" stroke="#000000" stroke-width="0.731999999999941" stroke-linecap="square" stroke-linejoin="bevel" d="M0.69 0.3L0 0L0.06 1.23L0.96 2.31L1.53 2.46L1.11 1.47Z"/><path id="shape19" transform="translate(98.1899999999921, 51.0899999999959)" fill="#000000" fill-rule="evenodd" stroke="#000000" stroke-width="0.731999999999941" stroke-linecap="square" stroke-linejoin="bevel" d="M0.24 0L0 0Z"/><path id="shape20" transform="translate(99.0599999999921, 52.2299999999958)" fill="#000000" fill-rule="evenodd" stroke="#000000" stroke-width="0.731999999999941" stroke-linecap="square" stroke-linejoin="bevel" d="M0 0L0.63 0.09Z"/><path id="shape21" transform="translate(93.9599999999925, 52.4999999999958)" fill="#000000" fill-rule="evenodd" stroke="#000000" stroke-width="0.731999999999941" stroke-linecap="square" stroke-linejoin="bevel" d="M4.41 0.48L3.21 0L2.16 0.75L0.39 0.87L0 1.86L0.54 3.12L1.77 3.54L2.79 2.97L4.35 0.96Z"/><path id="shape22" transform="translate(81.6299999999934, 45.8099999999963)" fill="#000000" fill-rule="evenodd" stroke="#000000" stroke-width="0.731999999999941" stroke-linecap="square" stroke-linejoin="bevel" d="M0 0L0.12 0.57L0.51 0.36L0.3 0Z"/><path id="shape23" transform="translate(88.2599999999929, 46.5899999999963)" fill="#000000" fill-rule="evenodd" stroke="#000000" stroke-width="0.731999999999941" stroke-linecap="square" stroke-linejoin="bevel" d="M2.13 0.6L0.72 0.48L0.27 0L0 0.63L2.58 4.83L3.51 4.89L3.99 4.11L3.45 3.27L1.89 1.77L2.19 1.29Z"/><path id="shape24" transform="translate(102.029999999992, 65.0699999999948)" fill="#000000" fill-rule="evenodd" stroke="#000000" stroke-width="0.731999999999941" stroke-linecap="square" stroke-linejoin="bevel" d="M3.75 3.21L2.55 1.95L2.64 1.17L1.29 0L0.09 0L0 0.66L0.93 1.56L1.05 5.13L2.01 5.61L2.64 5.16L2.79 4.29Z"/><path id="shape25" transform="translate(98.8499999999921, 71.6099999999943)" fill="#000000" fill-rule="evenodd" stroke="#000000" stroke-width="0.731999999999941" stroke-linecap="square" stroke-linejoin="bevel" d="M0 0.09L0.21 0.54L0.6 0.45L0.6 0Z"/><path id="shape26" transform="translate(89.1899999999928, 71.4599999999943)" fill="#000000" fill-rule="evenodd" stroke="#000000" stroke-width="0.731999999999941" stroke-linecap="square" stroke-linejoin="bevel" d="M0.6 0.51L0.24 0L0 0.33L0.39 0.81Z"/><path id="shape27" transform="translate(124.82999999999, 66.0299999999947)" fill="#000000" fill-rule="evenodd" stroke="#000000" stroke-width="0.731999999999941" stroke-linecap="square" stroke-linejoin="bevel" d="M2.67 1.92L3.72 2.82L4.17 2.34L4.17 1.38L3.66 0.48L2.7 0.75L1.74 0L0.39 0.15L0 1.05L0.15 1.71Z"/><path id="shape28" transform="translate(122.60999999999, 55.7699999999955)" fill="#000000" fill-rule="evenodd" stroke="#000000" stroke-width="0.731999999999941" stroke-linecap="square" stroke-linejoin="bevel" d="M1.71 0L2.31 1.29L2.19 1.89L4.23 1.83L3.69 2.82L2.49 3.24L0.69 3.06L0 2.31L0.9 1.38L1.65 0.48Z"/><path id="shape29" transform="translate(118.259999999991, 56.1599999999955)" fill="#000000" fill-rule="evenodd" stroke="#000000" stroke-width="0.731999999999941" stroke-linecap="square" stroke-linejoin="bevel" d="M2.58 0.93L1.8 0.93L0.63 0L0 0.48L0.42 1.71L2.31 2.25L2.64 1.89Z"/><path id="shape30" transform="translate(77.3857661330496, 35.48968934775)" fill="#000000" fill-rule="evenodd" stroke="#000000" stroke-width="0.731999999999941" stroke-linecap="square" stroke-linejoin="bevel" d="M3.09713 0.700036L0 0.572756L0.46669 1.65463L2.16375 1.71827L3.41533 2.90621L5.70635 2.96985L6.9155 3.83959L7.04278 5.96091L8.20951 6.68216L9.20653 6.7458L9.63079 6.04576L9.29138 2.63044L6.95793 1.48492L6.78823 0.0424264L5.3033 0L4.09415 0.954594L3.28805 1.03945Z"/><path id="shape31" transform="translate(70.9793786954999, 39.2868527627214)" fill="#000000" fill-rule="evenodd" stroke="#000000" stroke-width="0.731999999999941" stroke-linecap="square" stroke-linejoin="bevel" d="M0.127279 0L0 0.700036L0.254558 0.678823L0.424264 0.190919Z"/><path id="shape32" transform="translate(64.0638743754961, 36.5079231126585)" fill="#000000" fill-rule="evenodd" stroke="#000000" stroke-width="0.731999999999941" stroke-linecap="square" stroke-linejoin="bevel" d="M1.37886 1.20915L1.16673 0L0 0.784889L0.296985 1.56978L2.05768 3.6911L2.92742 3.71231L3.01227 2.90621Z"/><path id="shape33" transform="translate(94.7099999999924, 80.6699999999935)" fill="#000000" fill-rule="evenodd" stroke="#000000" stroke-width="0.731999999999941" stroke-linecap="square" stroke-linejoin="bevel" d="M1.44 0.72L0.72 0L0 0.27L0.18 1.29L0.63 1.53Z"/>
</svg>
